<svg xmlns="http://www.w3.org/2000/svg" xmlns:xlink="http://www.w3.org/1999/xlink" width="500" zoomAndPan="magnify" viewBox="0 0 375 149.999998" height="200" preserveAspectRatio="xMidYMid meet" version="1.0"><defs><g/><clipPath id="26cebbe4f4"><path d="M 0 26.71875 L 138.75 26.71875 L 138.75 123.46875 L 0 123.46875 Z M 0 26.71875 " clip-rule="nonzero"/></clipPath></defs><g clip-path="url(#26cebbe4f4)"><path fill="#cb6ce6" d="M -0.00390625 83.511719 C -0.00390625 68.058594 10.878906 62.457031 25.398438 59.332031 C 28.128906 40.898438 44.011719 26.757812 63.203125 26.757812 C 74.699219 26.757812 85.007812 31.832031 92.011719 39.863281 C 95.167969 38.832031 98.535156 38.269531 102.035156 38.269531 C 119.828125 38.269531 134.253906 52.695312 134.253906 70.488281 C 134.253906 72.054688 134.136719 73.59375 133.921875 75.101562 C 136.925781 79.910156 138.660156 85.59375 138.660156 91.683594 C 138.660156 108.835938 124.542969 123.21875 107.277344 123.039062 L 81.230469 123.039062 C 61.0625 123.039062 48.785156 108.84375 66.351562 93.320312 L 75.023438 85.65625 L 90.253906 116.199219 L 92.710938 114.15625 C 93.96875 113.109375 93.558594 110.949219 93.105469 109.253906 L 87.957031 89.675781 C 88.007812 89.636719 88.058594 89.59375 88.105469 89.542969 L 94.1875 83.464844 C 94.78125 82.871094 94.78125 81.898438 94.1875 81.304688 L 91.84375 78.960938 C 91.25 78.367188 90.277344 78.367188 89.683594 78.960938 L 86.085938 82.558594 L 84.769531 77.5625 L 98.144531 66.449219 C 101.167969 63.9375 102.761719 58.601562 98.980469 54.679688 C 95.058594 50.894531 89.722656 52.492188 87.210938 55.515625 L 76.097656 68.886719 L 71.101562 67.574219 L 74.699219 63.976562 C 75.292969 63.382812 75.289062 62.410156 74.699219 61.816406 L 72.355469 59.472656 C 71.761719 58.878906 70.789062 58.878906 70.195312 59.472656 L 64.117188 65.550781 C 64.066406 65.597656 64.023438 65.652344 63.984375 65.703125 L 44.40625 60.554688 C 42.710938 60.101562 40.550781 59.6875 39.503906 60.949219 L 37.460938 63.40625 L 68 78.636719 L 60.207031 87.457031 C 43.402344 106.472656 -0.00390625 118.589844 -0.00390625 83.511719 " fill-opacity="1" fill-rule="evenodd"/></g><g fill="#cb6ce6" fill-opacity="1"><g transform="translate(152.820726, 99.730814)"><g><path d="M 20.90625 1.3125 C 16.289062 1.3125 12.796875 0.144531 10.421875 -2.1875 C 8.046875 -4.519531 6.859375 -7.820312 6.859375 -12.09375 L 6.859375 -25.8125 L 1.3125 -25.8125 L 1.3125 -32.671875 L 6.859375 -32.671875 L 10.125 -41.8125 L 15.359375 -41.8125 L 15.359375 -32.671875 L 25.484375 -32.671875 L 25.484375 -25.8125 L 15.359375 -25.8125 L 15.359375 -12.09375 C 15.359375 -10.125 15.898438 -8.59375 16.984375 -7.5 C 18.078125 -6.414062 19.601562 -5.875 21.5625 -5.875 C 22.300781 -5.875 22.960938 -5.9375 23.546875 -6.0625 C 24.140625 -6.195312 24.65625 -6.351562 25.09375 -6.53125 C 25.570312 -6.707031 26.03125 -6.925781 26.46875 -7.1875 L 28.421875 -0.65625 C 27.679688 -0.257812 26.921875 0.0664062 26.140625 0.328125 C 25.441406 0.585938 24.644531 0.816406 23.75 1.015625 C 22.851562 1.210938 21.90625 1.3125 20.90625 1.3125 Z M 20.90625 1.3125 "/></g></g></g><g fill="#cb6ce6" fill-opacity="1"><g transform="translate(179.352044, 99.730814)"><g><path d="M 4.90625 -31.03125 C 6.125 -31.5625 7.453125 -32.039062 8.890625 -32.46875 C 10.109375 -32.820312 11.519531 -33.160156 13.125 -33.484375 C 14.738281 -33.816406 16.460938 -33.984375 18.296875 -33.984375 C 19.867188 -33.984375 21.328125 -33.847656 22.671875 -33.578125 C 24.023438 -33.316406 25.203125 -33.015625 26.203125 -32.671875 C 27.335938 -32.273438 28.40625 -31.835938 29.40625 -31.359375 L 27.125 -24.828125 C 26.46875 -25.179688 25.722656 -25.507812 24.890625 -25.8125 C 24.148438 -26.03125 23.28125 -26.25 22.28125 -26.46875 C 21.28125 -26.6875 20.171875 -26.796875 18.953125 -26.796875 C 18.210938 -26.796875 17.515625 -26.738281 16.859375 -26.625 C 16.203125 -26.519531 15.613281 -26.398438 15.09375 -26.265625 C 14.476562 -26.085938 13.910156 -25.9375 13.390625 -25.8125 L 13.390625 0 L 4.90625 0 Z M 4.90625 -31.03125 "/></g></g></g><g fill="#cb6ce6" fill-opacity="1"><g transform="translate(206.21011, 99.730814)"><g><path d="M 18.625 1.3125 C 15.75 1.3125 13.285156 1.015625 11.234375 0.421875 C 9.191406 -0.160156 7.503906 -0.953125 6.171875 -1.953125 C 4.847656 -2.960938 3.867188 -4.160156 3.234375 -5.546875 C 2.597656 -6.941406 2.28125 -8.46875 2.28125 -10.125 C 2.28125 -11.738281 2.597656 -13.253906 3.234375 -14.671875 C 3.867188 -16.085938 4.847656 -17.296875 6.171875 -18.296875 C 7.503906 -19.296875 9.191406 -20.085938 11.234375 -20.671875 C 13.285156 -21.265625 15.75 -21.5625 18.625 -21.5625 C 19.664062 -21.5625 20.632812 -21.53125 21.53125 -21.46875 C 22.425781 -21.40625 23.222656 -21.328125 23.921875 -21.234375 C 24.703125 -21.109375 25.441406 -21 26.140625 -20.90625 C 26.140625 -22.738281 25.539062 -24.175781 24.34375 -25.21875 C 23.144531 -26.269531 21.238281 -26.796875 18.625 -26.796875 C 17.3125 -26.796875 16.097656 -26.675781 14.984375 -26.4375 C 13.878906 -26.195312 12.914062 -25.921875 12.09375 -25.609375 C 11.132812 -25.265625 10.257812 -24.894531 9.46875 -24.5 L 6.203125 -30.390625 C 7.117188 -31.035156 8.207031 -31.625 9.46875 -32.15625 C 10.519531 -32.632812 11.816406 -33.054688 13.359375 -33.421875 C 14.910156 -33.796875 16.664062 -33.984375 18.625 -33.984375 C 23.894531 -33.984375 27.878906 -32.695312 30.578125 -30.125 C 33.273438 -27.550781 34.625 -24.046875 34.625 -19.609375 L 34.625 -0.984375 C 33.144531 -0.546875 31.535156 -0.148438 29.796875 0.203125 C 28.316406 0.503906 26.617188 0.765625 24.703125 0.984375 C 22.785156 1.203125 20.757812 1.3125 18.625 1.3125 Z M 18.625 -5.875 C 19.625 -5.875 20.570312 -5.914062 21.46875 -6 C 22.363281 -6.09375 23.15625 -6.207031 23.84375 -6.34375 C 24.632812 -6.507812 25.398438 -6.679688 26.140625 -6.859375 L 26.140625 -13.71875 L 23.84375 -14.046875 C 23.15625 -14.128906 22.363281 -14.203125 21.46875 -14.265625 C 20.570312 -14.335938 19.625 -14.375 18.625 -14.375 C 15.832031 -14.375 13.878906 -13.945312 12.765625 -13.09375 C 11.660156 -12.25 11.109375 -11.257812 11.109375 -10.125 C 11.109375 -8.988281 11.660156 -7.992188 12.765625 -7.140625 C 13.878906 -6.296875 15.832031 -5.875 18.625 -5.875 Z M 18.625 -5.875 "/></g></g></g><g fill="#cb6ce6" fill-opacity="1"><g transform="translate(242.216893, 99.730814)"><g><path d="M 0.65625 -32.671875 L 9.796875 -32.671875 L 18.953125 -8.5 L 19.28125 -8.5 L 28.421875 -32.671875 L 37.578125 -32.671875 L 24.171875 0 L 14.046875 0 Z M 0.65625 -32.671875 "/></g></g></g><g fill="#cb6ce6" fill-opacity="1"><g transform="translate(277.243467, 99.730814)"><g><path d="M 21.5625 1.3125 C 18.6875 1.3125 16.082031 0.863281 13.75 -0.03125 C 11.425781 -0.925781 9.4375 -2.15625 7.78125 -3.71875 C 6.125 -5.289062 4.847656 -7.15625 3.953125 -9.3125 C 3.054688 -11.46875 2.609375 -13.8125 2.609375 -16.34375 C 2.609375 -18.945312 3.03125 -21.328125 3.875 -23.484375 C 4.726562 -25.640625 5.925781 -27.503906 7.46875 -29.078125 C 9.019531 -30.648438 10.851562 -31.859375 12.96875 -32.703125 C 15.082031 -33.554688 17.40625 -33.984375 19.9375 -33.984375 C 22.457031 -33.984375 24.773438 -33.554688 26.890625 -32.703125 C 29.003906 -31.859375 30.832031 -30.648438 32.375 -29.078125 C 33.925781 -27.503906 35.125 -25.640625 35.96875 -23.484375 C 36.820312 -21.328125 37.25 -18.945312 37.25 -16.34375 L 33 -12.421875 L 11.703125 -12.421875 C 12.046875 -11.503906 12.488281 -10.648438 13.03125 -9.859375 C 13.582031 -9.078125 14.28125 -8.390625 15.125 -7.796875 C 15.976562 -7.210938 16.976562 -6.742188 18.125 -6.390625 C 19.28125 -6.046875 20.644531 -5.875 22.21875 -5.875 C 23.519531 -5.875 24.691406 -6.003906 25.734375 -6.265625 C 26.785156 -6.535156 27.679688 -6.84375 28.421875 -7.1875 C 29.253906 -7.582031 30.019531 -8.019531 30.71875 -8.5 L 33.984375 -2.609375 C 32.972656 -1.867188 31.835938 -1.21875 30.578125 -0.65625 C 29.492188 -0.175781 28.1875 0.269531 26.65625 0.6875 C 25.132812 1.101562 23.4375 1.3125 21.5625 1.3125 Z M 28.09375 -19.28125 C 27.75 -21.414062 26.832031 -23.203125 25.34375 -24.640625 C 23.863281 -26.078125 22.0625 -26.796875 19.9375 -26.796875 C 17.800781 -26.796875 15.976562 -26.078125 14.46875 -24.640625 C 12.96875 -23.203125 12.046875 -21.414062 11.703125 -19.28125 Z M 28.09375 -19.28125 "/></g></g></g><g fill="#cb6ce6" fill-opacity="1"><g transform="translate(313.577003, 99.730814)"><g><path d="M 6.859375 -38.875 L 1.953125 -38.875 L 1.953125 -45.734375 L 15.359375 -45.734375 L 15.359375 0 L 6.859375 0 Z M 6.859375 -38.875 "/></g></g></g><g fill="#cb6ce6" fill-opacity="1"><g transform="translate(330.959596, 99.730814)"><g><path d="M 19.28125 13.71875 C 17.320312 13.71875 15.554688 13.507812 13.984375 13.09375 C 12.410156 12.6875 11.0625 12.242188 9.9375 11.765625 C 8.625 11.191406 7.488281 10.535156 6.53125 9.796875 L 9.796875 3.921875 C 10.585938 4.398438 11.484375 4.835938 12.484375 5.234375 C 13.347656 5.578125 14.347656 5.878906 15.484375 6.140625 C 16.617188 6.398438 17.882812 6.53125 19.28125 6.53125 C 21.5 6.53125 23.257812 6.160156 24.5625 5.421875 C 25.875 4.679688 26.898438 3.851562 27.640625 2.9375 C 28.460938 1.894531 29.050781 0.695312 29.40625 -0.65625 L 29.40625 -1.3125 C 28.625 -1.175781 27.835938 -1.066406 27.046875 -0.984375 C 26.347656 -0.890625 25.570312 -0.8125 24.71875 -0.75 C 23.875 -0.6875 23.039062 -0.65625 22.21875 -0.65625 C 19.425781 -0.65625 16.953125 -1.023438 14.796875 -1.765625 C 12.640625 -2.503906 10.832031 -3.523438 9.375 -4.828125 C 7.914062 -6.140625 6.804688 -7.6875 6.046875 -9.46875 C 5.285156 -11.257812 4.90625 -13.222656 4.90625 -15.359375 L 4.90625 -32.671875 L 13.390625 -32.671875 L 13.390625 -15.359375 C 13.390625 -13.222656 14.160156 -11.4375 15.703125 -10 C 17.253906 -8.5625 19.425781 -7.84375 22.21875 -7.84375 C 23.09375 -7.84375 23.960938 -7.882812 24.828125 -7.96875 C 25.703125 -8.0625 26.488281 -8.171875 27.1875 -8.296875 C 27.96875 -8.472656 28.707031 -8.648438 29.40625 -8.828125 L 29.40625 -32.671875 L 37.90625 -32.671875 L 37.90625 -1.3125 C 37.90625 0.65625 37.488281 2.539062 36.65625 4.34375 C 35.832031 6.15625 34.613281 7.753906 33 9.140625 C 31.382812 10.535156 29.421875 11.644531 27.109375 12.46875 C 24.804688 13.300781 22.195312 13.71875 19.28125 13.71875 Z M 19.28125 13.71875 "/></g></g></g></svg>